<?xml version="1.0" encoding="utf-8"?>
<!-- Generator: Adobe Illustrator 15.1.0, SVG Export Plug-In . SVG Version: 6.00 Build 0)  -->
<!DOCTYPE svg PUBLIC "-//W3C//DTD SVG 1.1//EN" "http://www.w3.org/Graphics/SVG/1.1/DTD/svg11.dtd">
<svg version="1.1" id="Camada_1" xmlns="http://www.w3.org/2000/svg" xmlns:xlink="http://www.w3.org/1999/xlink" x="0px" y="0px"
	 width="612px" height="792px" viewBox="0 0 612 792" enable-background="new 0 0 612 792" xml:space="preserve">
<path stroke="#000000" stroke-miterlimit="10" d="M398.78,448.517c0,6.627-5.373,12-12,12H73.417c-6.627,0-12-5.373-12-12V308.78
	c0-6.627,5.373-12,12-12H386.78c6.627,0,12,5.373,12,12V448.517z"/>
<path stroke="#000000" stroke-miterlimit="10" d="M388.89,440.824c0,6.627-5.373,12-12,12H84.407c-6.627,0-12-5.373-12-12V320.868
	c0-6.627,5.373-12,12-12H376.89c6.627,0,12,5.373,12,12V440.824z"/>
<polygon stroke="#000000" stroke-miterlimit="10" points="388.89,452.824 388.89,452.824 388.89,452.824 388.89,452.824 
	388.89,452.824 388.89,452.824 388.89,452.824 388.89,452.824 "/>
<path fill="#444242" stroke="#000000" stroke-miterlimit="10" d="M388.89,440.625c0,6.737-5.455,12.199-12.183,12.199H79.77
	c-6.729,0-12.183-5.462-12.183-12.199V318.683c0-6.737,5.455-12.199,12.183-12.199h296.938c6.728,0,12.183,5.461,12.183,12.199
	V440.625z"/>
<rect x="218.561" y="460.517" stroke="#000000" stroke-miterlimit="10" width="27.472" height="29.67"/>
<rect x="154.824" y="490.187" stroke="#000000" stroke-miterlimit="10" width="151.648" height="14.286"/>
<rect x="429.55" y="308.868" stroke="#000000" stroke-miterlimit="10" width="100" height="195.604"/>
<path stroke="#000000" stroke-miterlimit="10" d="M513.065,331.945c0,1.214-0.984,2.198-2.198,2.198h-29.119
	c-1.214,0-2.198-0.984-2.198-2.198l0,0c0-1.214,0.984-2.198,2.198-2.198h29.119C512.081,329.747,513.065,330.731,513.065,331.945
	L513.065,331.945z"/>
<path fill="#FFFFFF" stroke="#000000" stroke-miterlimit="10" d="M516.912,329.747c0,2.731-2.214,4.945-4.945,4.945h-64.835
	c-2.731,0-4.945-2.214-4.945-4.945l0,0c0-2.731,2.214-4.945,4.945-4.945h64.835C514.698,324.802,516.912,327.016,516.912,329.747
	L516.912,329.747z"/>
<path fill="#FFFFFF" stroke="#000000" stroke-miterlimit="10" d="M516.912,346.232c0,2.731-2.214,4.944-4.945,4.944h-64.835
	c-2.731,0-4.945-2.213-4.945-4.944l0,0c0-2.731,2.214-4.945,4.945-4.945h64.835C514.698,341.287,516.912,343.5,516.912,346.232
	L516.912,346.232z"/>
<path fill="#FFFFFF" stroke="#000000" stroke-miterlimit="10" d="M516.912,364.363c0,2.731-2.215,4.944-4.945,4.944h-64.836
	c-2.73,0-4.945-2.213-4.945-4.944l0,0c0-2.731,2.215-4.945,4.945-4.945h64.836C514.697,359.417,516.912,361.631,516.912,364.363
	L516.912,364.363z"/>
<path fill="#FFFFFF" stroke="#000000" stroke-miterlimit="10" d="M516.912,471.053c0,7.532-2.087,13.64-4.662,13.64h-14.796
	c-2.574,0-4.661-6.107-4.661-13.64v-61.41c0-7.535,2.087-13.643,4.661-13.643h14.796c2.575,0,4.662,6.107,4.662,13.643V471.053z"/>
<ellipse fill="#FFFFFF" stroke="#000000" stroke-miterlimit="10" cx="452.352" cy="398.979" rx="10.165" ry="7.691"/>
<ellipse fill="#FFFFFF" stroke="#000000" stroke-miterlimit="10" cx="452.352" cy="426.45" rx="10.165" ry="9.341"/>
</svg>
